<svg width="135" height="49" viewBox="0 0 135 49" fill="none" xmlns="http://www.w3.org/2000/svg">
<path d="M22.4917 20.5876H27.3812L31.8969 33.8757L31.2353 33.588L35.1757 23.7802L37.1028 29.5038L31.0052 42.5906L22.4917 20.5876ZM33.1049 20.5876H37.2466L42.4526 33.4442L41.7047 33.3292L45.5876 20.5876H50.0745L41.9061 42.533L33.1049 20.5876ZM50.7322 31.057C50.7322 29.5997 51.0102 28.2191 51.5663 26.9152C52.1224 25.6114 52.8894 24.4609 53.8673 23.4638C54.8644 22.4475 56.0148 21.6518 57.3187 21.0765C58.6226 20.5013 60.0224 20.2137 61.518 20.2137C62.9944 20.2137 64.3846 20.5013 65.6885 21.0765C66.9924 21.6518 68.1429 22.4475 69.1399 23.4638C70.1562 24.4609 70.9424 25.6114 71.4984 26.9152C72.0737 28.2191 72.3613 29.5997 72.3613 31.057C72.3613 32.5526 72.0737 33.9524 71.4984 35.2562C70.9424 36.5601 70.1562 37.7106 69.1399 38.7077C68.1429 39.6856 66.9924 40.4526 65.6885 41.0087C64.3846 41.5647 62.9944 41.8428 61.518 41.8428C60.0224 41.8428 58.6226 41.5647 57.3187 41.0087C56.0148 40.4526 54.8644 39.6856 53.8673 38.7077C52.8894 37.7106 52.1224 36.5601 51.5663 35.2562C51.0102 33.9524 50.7322 32.5526 50.7322 31.057ZM55.0465 31.057C55.0465 31.9965 55.2095 32.8786 55.5355 33.7031C55.8806 34.5084 56.3504 35.2275 56.9448 35.8602C57.5584 36.4738 58.2583 36.9532 59.0444 37.2984C59.8498 37.6435 60.7222 37.8161 61.6618 37.8161C62.563 37.8161 63.3971 37.6435 64.1641 37.2984C64.9503 36.9532 65.631 36.4738 66.2062 35.8602C66.7814 35.2275 67.2321 34.5084 67.558 33.7031C67.884 32.8786 68.047 31.9965 68.047 31.057C68.047 30.0982 67.8744 29.2066 67.5293 28.3821C67.2033 27.5576 66.7431 26.8385 66.1487 26.225C65.5734 25.5922 64.8927 25.1032 64.1066 24.7581C63.3204 24.4129 62.4671 24.2404 61.5467 24.2404C60.6264 24.2404 59.7731 24.4129 58.9869 24.7581C58.2008 25.1032 57.5105 25.5922 56.9161 26.225C56.3216 26.8385 55.8614 27.5576 55.5355 28.3821C55.2095 29.2066 55.0465 30.0982 55.0465 31.057ZM82.9331 20.4438C84.2562 20.4438 85.4354 20.6163 86.4709 20.9615C87.5063 21.2875 88.3692 21.7668 89.0595 22.3996C89.7689 23.0132 90.3058 23.761 90.6701 24.643C91.0345 25.5059 91.2166 26.4838 91.2166 27.5768C91.2166 28.4396 91.0824 29.3025 90.814 30.1654C90.5647 31.0282 90.1428 31.8144 89.5484 32.5238C88.9732 33.2333 88.2062 33.8086 87.2475 34.2496C86.2887 34.6714 85.0999 34.8823 83.681 34.8823H80.6897V41.6127H76.5192V20.4438H82.9331ZM83.6522 30.8556C84.285 30.8556 84.8123 30.7502 85.2341 30.5393C85.656 30.3283 85.9819 30.0599 86.212 29.7339C86.4613 29.408 86.6339 29.0724 86.7297 28.7273C86.8448 28.3629 86.9023 28.0274 86.9023 27.7206C86.9023 27.4905 86.864 27.2029 86.7873 26.8577C86.7297 26.4934 86.5955 26.1291 86.3846 25.7648C86.1737 25.4004 85.8477 25.0936 85.4067 24.8444C84.9848 24.5951 84.4096 24.4705 83.681 24.4705H80.6897V30.8556H83.6522ZM87.5638 33.4442L92.7985 41.6127H87.9377L82.588 33.5593L87.5638 33.4442ZM96.237 20.4438H100.407V37.586H110.359V41.6127H96.237V20.4438ZM114.663 41.6127V20.4438H120.99C123.119 20.4438 124.931 20.7602 126.426 21.3929C127.922 22.0257 129.12 22.8694 130.022 23.924C130.942 24.9786 131.613 26.1578 132.035 27.4617C132.457 28.7656 132.668 30.0791 132.668 31.4021C132.668 32.9745 132.38 34.3934 131.805 35.6589C131.249 36.9053 130.482 37.9791 129.504 38.8803C128.526 39.7623 127.395 40.443 126.11 40.9224C124.825 41.3826 123.464 41.6127 122.026 41.6127H114.663ZM118.833 37.586H121.307C122.361 37.586 123.32 37.4518 124.183 37.1833C125.046 36.8957 125.784 36.4834 126.398 35.9465C127.03 35.4096 127.51 34.7385 127.836 33.9332C128.181 33.1087 128.353 32.1691 128.353 31.1145C128.353 29.7339 128.123 28.6122 127.663 27.7493C127.222 26.8673 126.666 26.1866 125.995 25.7072C125.343 25.2279 124.672 24.9019 123.982 24.7293C123.291 24.5376 122.706 24.4417 122.227 24.4417H118.833V37.586Z" fill="white"/>
<path d="M24.5691 7.97607L24.8183 10.277L24.7608 9.93189C25.0037 9.43335 25.336 9.01151 25.7579 8.66636C26.1797 8.30843 26.5952 8.0336 27.0042 7.84185C27.4261 7.6501 27.7457 7.55423 27.963 7.55423L27.8288 10.2387C27.2024 10.162 26.6655 10.2643 26.2181 10.5455C25.7707 10.8267 25.4255 11.1974 25.1826 11.6576C24.9398 12.1178 24.8183 12.5908 24.8183 13.0765V16.3554H22.153V7.97607H24.5691ZM28.9912 12.0603C28.9912 11.2038 29.1894 10.4368 29.5856 9.75932C29.9947 9.08181 30.5636 8.55131 31.2922 8.16782C32.0208 7.77154 32.8581 7.5734 33.8041 7.5734C34.7628 7.5734 35.5937 7.77154 36.2968 8.16782C36.9999 8.55131 37.5368 9.08181 37.9075 9.75932C38.291 10.4368 38.4827 11.2038 38.4827 12.0603C38.4827 12.9168 38.291 13.6901 37.9075 14.3804C37.5368 15.0579 36.9999 15.5948 36.2968 15.9911C35.5937 16.3874 34.75 16.5855 33.7657 16.5855C32.8453 16.5855 32.0208 16.4066 31.2922 16.0486C30.5763 15.6907 30.0139 15.173 29.6048 14.4955C29.1958 13.818 28.9912 13.0062 28.9912 12.0603ZM31.6949 12.0795C31.6949 12.5141 31.7843 12.9104 31.9633 13.2683C32.1423 13.6134 32.3851 13.8883 32.6919 14.0928C32.9987 14.2973 33.3439 14.3996 33.7274 14.3996C34.1492 14.3996 34.5135 14.2973 34.8203 14.0928C35.1271 13.8883 35.3636 13.6134 35.5298 13.2683C35.696 12.9104 35.7791 12.5141 35.7791 12.0795C35.7791 11.6321 35.696 11.2358 35.5298 10.8906C35.3636 10.5455 35.1271 10.2706 34.8203 10.0661C34.5135 9.86159 34.1492 9.75932 33.7274 9.75932C33.3439 9.75932 32.9987 9.86159 32.6919 10.0661C32.3851 10.2706 32.1423 10.5455 31.9633 10.8906C31.7843 11.2358 31.6949 11.6321 31.6949 12.0795ZM43.3011 16.7581C42.5469 16.7581 41.9141 16.528 41.4028 16.0678C40.8915 15.5948 40.623 14.9876 40.5975 14.2462V7.97607H43.2819V13.2491C43.3075 13.6198 43.4034 13.9202 43.5695 14.1503C43.7357 14.3676 44.017 14.4763 44.4132 14.4763C44.8095 14.4763 45.1483 14.3421 45.4295 14.0736C45.7235 13.8052 45.9472 13.4409 46.1006 12.9807C46.2668 12.5077 46.3499 11.9772 46.3499 11.3892V7.97607H49.0343V16.3554H46.5992L46.3882 14.8214L46.4266 14.994C46.2348 15.3392 45.992 15.646 45.6979 15.9144C45.4039 16.1829 45.0524 16.3874 44.6433 16.528C44.2471 16.6814 43.7996 16.7581 43.3011 16.7581ZM54.2304 7.97607L54.4413 9.4717L54.403 9.33748C54.697 8.81337 55.1124 8.39152 55.6493 8.07195C56.1862 7.73958 56.8445 7.5734 57.6243 7.5734C58.4169 7.5734 59.0752 7.80989 59.5993 8.28287C60.1362 8.74306 60.411 9.34387 60.4238 10.0853V16.3554H57.7394V11.0824C57.7266 10.7117 57.6243 10.4177 57.4326 10.2003C57.2536 9.97024 56.9468 9.85519 56.5122 9.85519C56.1031 9.85519 55.7452 9.98942 55.4384 10.2579C55.1316 10.5263 54.8951 10.8906 54.7289 11.3508C54.5628 11.811 54.4797 12.3415 54.4797 12.9423V16.3554H51.7952V7.97607H54.2304ZM66.5933 16.5855C65.8135 16.5855 65.1168 16.4066 64.5032 16.0486C63.8897 15.6779 63.4039 15.1474 63.046 14.4571C62.7008 13.7668 62.5282 12.9487 62.5282 12.0028C62.5282 11.0568 62.72 10.2515 63.1035 9.58675C63.487 8.92202 64.0111 8.41709 64.6758 8.07195C65.3405 7.7268 66.0947 7.55423 66.9384 7.55423C67.4753 7.55423 67.9867 7.63732 68.4724 7.8035C68.971 7.96968 69.3864 8.22534 69.7188 8.57049V9.41418V1.22657H72.3841V16.3554H69.6996V14.7256L69.9105 15.3008C69.4759 15.6587 68.9901 15.9655 68.4532 16.2212C67.9163 16.4641 67.2964 16.5855 66.5933 16.5855ZM67.4753 14.3229C67.8333 14.3229 68.1464 14.2782 68.4149 14.1887C68.6961 14.0864 68.939 13.9458 69.1435 13.7668C69.3608 13.5751 69.5462 13.3386 69.6996 13.0574V11.0057C69.5973 10.7244 69.4375 10.488 69.2202 10.2962C69.0157 10.0917 68.76 9.93828 68.4532 9.83602C68.1592 9.72097 67.8333 9.66345 67.4753 9.66345C67.079 9.66345 66.7083 9.76571 66.3632 9.97024C66.0308 10.162 65.7624 10.4304 65.5579 10.7756C65.3533 11.1207 65.2511 11.517 65.2511 11.9644C65.2511 12.4118 65.3533 12.8145 65.5579 13.1724C65.7624 13.5303 66.0308 13.8116 66.3632 14.0161C66.7083 14.2206 67.079 14.3229 67.4753 14.3229ZM82.1674 4.29453H84.8518V7.93772H86.8843V10.0278H84.8518V16.3554H82.1674V10.0278H80.8635V7.93772H82.1674V4.29453ZM88.9275 16.3554V1.22657H91.5544V9.66345L91.5352 9.33748C91.8293 8.81337 92.2447 8.39152 92.7816 8.07195C93.3185 7.73958 93.9768 7.5734 94.7566 7.5734C95.5492 7.5734 96.2075 7.80989 96.7316 8.28287C97.2685 8.74306 97.5433 9.34387 97.5561 10.0853V16.3554H94.8716V11.0824C94.8589 10.7117 94.7566 10.4177 94.5649 10.2003C94.3859 9.97024 94.0791 9.85519 93.6445 9.85519C93.2354 9.85519 92.8775 9.98942 92.5707 10.2579C92.2639 10.5263 92.0274 10.8906 91.8612 11.3508C91.695 11.811 91.6119 12.3415 91.6119 12.9423V16.3554H88.9275ZM104.435 16.5855C103.412 16.5855 102.543 16.3938 101.827 16.0103C101.124 15.6268 100.587 15.0963 100.217 14.4188C99.8459 13.7413 99.6605 12.9615 99.6605 12.0795C99.6605 11.2358 99.8778 10.4752 100.312 9.79767C100.747 9.12016 101.329 8.58327 102.057 8.18699C102.786 7.77793 103.598 7.5734 104.493 7.5734C105.694 7.5734 106.678 7.92494 107.445 8.62801C108.225 9.3183 108.73 10.3218 108.96 11.6384L102.441 13.7093L101.846 12.252L106.563 10.6605L106.007 10.9098C105.905 10.5774 105.72 10.2898 105.451 10.0469C105.196 9.79128 104.806 9.66345 104.282 9.66345C103.885 9.66345 103.534 9.75932 103.227 9.95107C102.933 10.13 102.703 10.3921 102.537 10.7372C102.383 11.0696 102.307 11.4659 102.307 11.9261C102.307 12.4502 102.403 12.8912 102.594 13.2491C102.786 13.5943 103.048 13.8563 103.38 14.0353C103.713 14.2142 104.083 14.3037 104.493 14.3037C104.787 14.3037 105.068 14.2526 105.336 14.1503C105.617 14.0481 105.892 13.9138 106.161 13.7477L107.35 15.7418C106.902 15.9975 106.416 16.202 105.892 16.3554C105.381 16.5088 104.895 16.5855 104.435 16.5855Z" fill="white"/>
<g clip-path="url(#clip0_234_1511)">
<path d="M12.0226 2.00377V13.0246" stroke="white" stroke-width="1.59789" stroke-linecap="round" stroke-linejoin="round"/>
<path d="M12.0228 2.00377L18.5351 15.5293L12.0228 13.0246L5.51052 15.5293L12.0228 2.00377Z" stroke="white" stroke-width="2.39684" stroke-linecap="round" stroke-linejoin="round"/>
</g>
<defs>
<clipPath id="clip0_234_1511">
<rect width="17.0026" height="17.0026" fill="white" transform="translate(0 12.0227) rotate(-45)"/>
</clipPath>
</defs>
</svg>
