<svg width="168" height="61" viewBox="0 0 168 61" fill="none" xmlns="http://www.w3.org/2000/svg">
<path d="M28.152 25.684H34.272L39.924 42.316L39.096 41.956L44.028 29.68L46.44 36.844L38.808 53.224L28.152 25.684ZM41.436 25.684H46.62L53.136 41.776L52.2 41.632L57.06 25.684H62.676L52.452 53.152L41.436 25.684ZM63.4992 38.788C63.4992 36.964 63.8472 35.236 64.5432 33.604C65.2392 31.972 66.1992 30.532 67.4232 29.284C68.6712 28.012 70.1112 27.016 71.7432 26.296C73.3752 25.576 75.1272 25.216 76.9992 25.216C78.8472 25.216 80.5872 25.576 82.2192 26.296C83.8512 27.016 85.2912 28.012 86.5392 29.284C87.8112 30.532 88.7952 31.972 89.4912 33.604C90.2112 35.236 90.5712 36.964 90.5712 38.788C90.5712 40.66 90.2112 42.412 89.4912 44.044C88.7952 45.676 87.8112 47.116 86.5392 48.364C85.2912 49.588 83.8512 50.548 82.2192 51.244C80.5872 51.94 78.8472 52.288 76.9992 52.288C75.1272 52.288 73.3752 51.94 71.7432 51.244C70.1112 50.548 68.6712 49.588 67.4232 48.364C66.1992 47.116 65.2392 45.676 64.5432 44.044C63.8472 42.412 63.4992 40.66 63.4992 38.788ZM68.8992 38.788C68.8992 39.964 69.1032 41.068 69.5112 42.1C69.9432 43.108 70.5312 44.008 71.2752 44.8C72.0432 45.568 72.9192 46.168 73.9032 46.6C74.9112 47.032 76.0032 47.248 77.1792 47.248C78.3072 47.248 79.3512 47.032 80.3112 46.6C81.2952 46.168 82.1472 45.568 82.8672 44.8C83.5872 44.008 84.1512 43.108 84.5592 42.1C84.9672 41.068 85.1712 39.964 85.1712 38.788C85.1712 37.588 84.9552 36.472 84.5232 35.44C84.1152 34.408 83.5392 33.508 82.7952 32.74C82.0752 31.948 81.2232 31.336 80.2392 30.904C79.2552 30.472 78.1872 30.256 77.0352 30.256C75.8832 30.256 74.8152 30.472 73.8312 30.904C72.8472 31.336 71.9832 31.948 71.2392 32.74C70.4952 33.508 69.9192 34.408 69.5112 35.44C69.1032 36.472 68.8992 37.588 68.8992 38.788ZM103.803 25.504C105.459 25.504 106.935 25.72 108.231 26.152C109.527 26.56 110.607 27.16 111.471 27.952C112.359 28.72 113.031 29.656 113.487 30.76C113.943 31.84 114.171 33.064 114.171 34.432C114.171 35.512 114.003 36.592 113.667 37.672C113.355 38.752 112.827 39.736 112.083 40.624C111.363 41.512 110.403 42.232 109.203 42.784C108.003 43.312 106.515 43.576 104.739 43.576H100.995V52H95.7755V25.504H103.803ZM104.703 38.536C105.495 38.536 106.155 38.404 106.683 38.14C107.211 37.876 107.619 37.54 107.907 37.132C108.219 36.724 108.435 36.304 108.555 35.872C108.699 35.416 108.771 34.996 108.771 34.612C108.771 34.324 108.723 33.964 108.627 33.532C108.555 33.076 108.387 32.62 108.123 32.164C107.859 31.708 107.451 31.324 106.899 31.012C106.371 30.7 105.651 30.544 104.739 30.544H100.995V38.536H104.703ZM109.599 41.776L116.151 52H110.067L103.371 41.92L109.599 41.776ZM120.455 25.504H125.675V46.96H138.131V52H120.455V25.504ZM143.518 52V25.504H151.438C154.102 25.504 156.37 25.9 158.242 26.692C160.114 27.484 161.614 28.54 162.742 29.86C163.894 31.18 164.734 32.656 165.262 34.288C165.79 35.92 166.054 37.564 166.054 39.22C166.054 41.188 165.694 42.964 164.974 44.548C164.278 46.108 163.318 47.452 162.094 48.58C160.87 49.684 159.454 50.536 157.846 51.136C156.238 51.712 154.534 52 152.734 52H143.518ZM148.738 46.96H151.834C153.154 46.96 154.354 46.792 155.434 46.456C156.514 46.096 157.438 45.58 158.206 44.908C158.998 44.236 159.598 43.396 160.006 42.388C160.438 41.356 160.654 40.18 160.654 38.86C160.654 37.132 160.366 35.728 159.79 34.648C159.238 33.544 158.542 32.692 157.702 32.092C156.886 31.492 156.046 31.084 155.182 30.868C154.318 30.628 153.586 30.508 152.986 30.508H148.738V46.96Z" fill="white"/>
<path d="M30.752 10.912L31.064 13.792L30.992 13.36C31.296 12.736 31.712 12.208 32.24 11.776C32.768 11.328 33.288 10.984 33.8 10.744C34.328 10.504 34.728 10.384 35 10.384L34.832 13.744C34.048 13.648 33.376 13.776 32.816 14.128C32.256 14.48 31.824 14.944 31.52 15.52C31.216 16.096 31.064 16.688 31.064 17.296V21.4H27.728V10.912H30.752ZM36.287 16.024C36.287 14.952 36.535 13.992 37.031 13.144C37.543 12.296 38.255 11.632 39.167 11.152C40.079 10.656 41.127 10.408 42.311 10.408C43.511 10.408 44.551 10.656 45.431 11.152C46.311 11.632 46.983 12.296 47.447 13.144C47.927 13.992 48.167 14.952 48.167 16.024C48.167 17.096 47.927 18.064 47.447 18.928C46.983 19.776 46.311 20.448 45.431 20.944C44.551 21.44 43.495 21.688 42.263 21.688C41.111 21.688 40.079 21.464 39.167 21.016C38.271 20.568 37.567 19.92 37.055 19.072C36.543 18.224 36.287 17.208 36.287 16.024ZM39.671 16.048C39.671 16.592 39.783 17.088 40.007 17.536C40.231 17.968 40.535 18.312 40.919 18.568C41.303 18.824 41.735 18.952 42.215 18.952C42.743 18.952 43.199 18.824 43.583 18.568C43.967 18.312 44.263 17.968 44.471 17.536C44.679 17.088 44.783 16.592 44.783 16.048C44.783 15.488 44.679 14.992 44.471 14.56C44.263 14.128 43.967 13.784 43.583 13.528C43.199 13.272 42.743 13.144 42.215 13.144C41.735 13.144 41.303 13.272 40.919 13.528C40.535 13.784 40.231 14.128 40.007 14.56C39.783 14.992 39.671 15.488 39.671 16.048ZM54.1979 21.904C53.2539 21.904 52.4619 21.616 51.8219 21.04C51.1819 20.448 50.8459 19.688 50.8139 18.76V10.912H54.1739V17.512C54.2059 17.976 54.3259 18.352 54.5339 18.64C54.7419 18.912 55.0939 19.048 55.5899 19.048C56.0859 19.048 56.5099 18.88 56.8619 18.544C57.2299 18.208 57.5099 17.752 57.7019 17.176C57.9099 16.584 58.0139 15.92 58.0139 15.184V10.912H61.3739V21.4H58.3259L58.0619 19.48L58.1099 19.696C57.8699 20.128 57.5659 20.512 57.1979 20.848C56.8299 21.184 56.3899 21.44 55.8779 21.616C55.3819 21.808 54.8219 21.904 54.1979 21.904ZM67.8776 10.912L68.1416 12.784L68.0936 12.616C68.4616 11.96 68.9816 11.432 69.6536 11.032C70.3256 10.616 71.1496 10.408 72.1256 10.408C73.1176 10.408 73.9416 10.704 74.5976 11.296C75.2696 11.872 75.6136 12.624 75.6296 13.552V21.4H72.2696V14.8C72.2536 14.336 72.1256 13.968 71.8856 13.696C71.6616 13.408 71.2776 13.264 70.7336 13.264C70.2216 13.264 69.7736 13.432 69.3896 13.768C69.0056 14.104 68.7096 14.56 68.5016 15.136C68.2936 15.712 68.1896 16.376 68.1896 17.128V21.4H64.8296V10.912H67.8776ZM83.3516 21.688C82.3756 21.688 81.5036 21.464 80.7356 21.016C79.9676 20.552 79.3596 19.888 78.9116 19.024C78.4796 18.16 78.2636 17.136 78.2636 15.952C78.2636 14.768 78.5036 13.76 78.9836 12.928C79.4636 12.096 80.1196 11.464 80.9516 11.032C81.7836 10.6 82.7276 10.384 83.7836 10.384C84.4556 10.384 85.0956 10.488 85.7036 10.696C86.3276 10.904 86.8476 11.224 87.2636 11.656V12.712V2.46399H90.5996V21.4H87.2396V19.36L87.5036 20.08C86.9596 20.528 86.3516 20.912 85.6796 21.232C85.0076 21.536 84.2316 21.688 83.3516 21.688ZM84.4556 18.856C84.9036 18.856 85.2956 18.8 85.6316 18.688C85.9836 18.56 86.2876 18.384 86.5436 18.16C86.8156 17.92 87.0476 17.624 87.2396 17.272V14.704C87.1116 14.352 86.9116 14.056 86.6396 13.816C86.3836 13.56 86.0636 13.368 85.6796 13.24C85.3116 13.096 84.9036 13.024 84.4556 13.024C83.9596 13.024 83.4956 13.152 83.0636 13.408C82.6476 13.648 82.3116 13.984 82.0556 14.416C81.7996 14.848 81.6716 15.344 81.6716 15.904C81.6716 16.464 81.7996 16.968 82.0556 17.416C82.3116 17.864 82.6476 18.216 83.0636 18.472C83.4956 18.728 83.9596 18.856 84.4556 18.856ZM102.845 6.30399H106.205V10.864H108.749V13.48H106.205V21.4H102.845V13.48H101.213V10.864H102.845V6.30399ZM111.306 21.4V2.46399H114.594V13.024L114.57 12.616C114.938 11.96 115.458 11.432 116.13 11.032C116.802 10.616 117.626 10.408 118.602 10.408C119.594 10.408 120.418 10.704 121.074 11.296C121.746 11.872 122.09 12.624 122.106 13.552V21.4H118.746V14.8C118.73 14.336 118.602 13.968 118.362 13.696C118.138 13.408 117.754 13.264 117.21 13.264C116.698 13.264 116.25 13.432 115.866 13.768C115.482 14.104 115.186 14.56 114.978 15.136C114.77 15.712 114.666 16.376 114.666 17.128V21.4H111.306ZM130.716 21.688C129.436 21.688 128.348 21.448 127.452 20.968C126.572 20.488 125.9 19.824 125.436 18.976C124.972 18.128 124.74 17.152 124.74 16.048C124.74 14.992 125.012 14.04 125.556 13.192C126.1 12.344 126.828 11.672 127.74 11.176C128.652 10.664 129.668 10.408 130.788 10.408C132.292 10.408 133.524 10.848 134.484 11.728C135.46 12.592 136.092 13.848 136.38 15.496L128.22 18.088L127.476 16.264L133.38 14.272L132.684 14.584C132.556 14.168 132.324 13.808 131.988 13.504C131.668 13.184 131.18 13.024 130.524 13.024C130.028 13.024 129.588 13.144 129.204 13.384C128.836 13.608 128.548 13.936 128.34 14.368C128.148 14.784 128.052 15.28 128.052 15.856C128.052 16.512 128.172 17.064 128.412 17.512C128.652 17.944 128.98 18.272 129.396 18.496C129.812 18.72 130.276 18.832 130.788 18.832C131.156 18.832 131.508 18.768 131.844 18.64C132.196 18.512 132.54 18.344 132.876 18.136L134.364 20.632C133.804 20.952 133.196 21.208 132.54 21.4C131.9 21.592 131.292 21.688 130.716 21.688Z" fill="white"/>
<g clip-path="url(#clip0_16_853)">
<path d="M15.0482 2.95986V16.754" stroke="white" stroke-width="2" stroke-linecap="round" stroke-linejoin="round"/>
<path d="M15.0482 2.95986L23.1993 19.889L15.0482 16.754L6.89711 19.889L15.0482 2.95986Z" stroke="white" stroke-width="3" stroke-linecap="round" stroke-linejoin="round"/>
</g>
<defs>
<clipPath id="clip0_16_853">
<rect width="21.2813" height="21.2813" fill="white" transform="translate(0 15.5) rotate(-45)"/>
</clipPath>
</defs>
</svg>
