<svg width="866" height="659" viewBox="0 0 866 659" fill="none" xmlns="http://www.w3.org/2000/svg">
<g clip-path="url(#clip0_83_191)">
<path d="M307.917 153.234C307.558 153.234 307.212 153.098 306.949 152.852C306.687 152.607 306.527 152.272 306.502 151.913C305.573 139.292 299.912 127.486 290.652 118.86C281.392 110.233 269.216 105.421 256.561 105.387C255.046 105.387 253.455 105.464 251.832 105.616C251.56 105.641 251.287 105.588 251.045 105.463C250.803 105.337 250.602 105.144 250.466 104.908C244.653 94.7321 235.972 86.494 225.506 81.2213C215.04 75.9486 203.253 73.8749 191.616 75.259C179.979 76.643 169.007 81.4235 160.07 89.0038C151.133 96.5842 144.626 106.629 141.362 117.884C141.275 118.185 141.091 118.45 140.838 118.635C140.586 118.821 140.278 118.917 139.964 118.909L139.587 118.897C139.39 118.891 139.194 118.884 138.996 118.884C129.397 118.914 120.096 122.225 112.638 128.268C105.18 134.311 100.012 142.723 97.9915 152.107C97.9243 152.426 97.7495 152.712 97.4964 152.917C97.2432 153.123 96.9272 153.235 96.6013 153.235H1.42062C1.04448 153.234 0.684081 153.083 0.418457 152.817C0.152833 152.551 0.00366211 152.19 0.00366211 151.814C0.00366211 151.438 0.152833 151.077 0.418457 150.811C0.684081 150.544 1.04448 150.394 1.42062 150.393H95.4643C97.8318 140.632 103.401 131.946 111.282 125.719C119.163 119.493 128.903 116.086 138.947 116.043C142.522 104.476 149.38 94.1977 158.686 86.455C167.993 78.7122 179.347 73.8388 191.371 72.4267C203.394 71.0146 215.569 73.1246 226.416 78.5004C237.264 83.8762 246.316 92.2864 252.474 102.709C253.872 102.6 255.243 102.546 256.561 102.546C269.935 102.582 282.802 107.667 292.587 116.784C302.373 125.901 308.355 138.376 309.336 151.714C309.349 151.9 309.325 152.087 309.266 152.264C309.207 152.441 309.114 152.605 308.991 152.746C308.869 152.887 308.72 153.002 308.553 153.085C308.386 153.168 308.204 153.218 308.018 153.231C307.984 153.233 307.951 153.234 307.917 153.234Z" fill="#CBCBCB"/>
<path d="M291.013 171.451H58.0147C57.6379 171.451 57.2766 171.301 57.0101 171.035C56.7437 170.768 56.594 170.407 56.594 170.03C56.594 169.653 56.7437 169.292 57.0101 169.025C57.2766 168.759 57.6379 168.609 58.0147 168.609H291.013C291.39 168.609 291.752 168.759 292.018 169.025C292.284 169.292 292.434 169.653 292.434 170.03C292.434 170.407 292.284 170.768 292.018 171.035C291.752 171.301 291.39 171.451 291.013 171.451Z" fill="#CBCBCB"/>
<path d="M114.844 192.051H36.7038C36.5169 192.052 36.3318 192.015 36.159 191.944C35.9861 191.873 35.8291 191.768 35.6967 191.636C35.5644 191.504 35.4594 191.348 35.3878 191.175C35.3162 191.002 35.2793 190.817 35.2793 190.63C35.2793 190.444 35.3162 190.259 35.3878 190.086C35.4594 189.913 35.5644 189.756 35.6967 189.625C35.8291 189.493 35.9861 189.388 36.159 189.317C36.3318 189.246 36.5169 189.209 36.7038 189.21H114.844C115.22 189.211 115.58 189.361 115.846 189.627C116.111 189.894 116.261 190.254 116.261 190.63C116.261 191.007 116.111 191.367 115.846 191.634C115.58 191.9 115.22 192.05 114.844 192.051Z" fill="#CBCBCB"/>
<path d="M187.901 468.486C187.901 526.246 127.346 553.883 127.346 553.883C127.346 553.883 66.1708 526.246 64.9286 468.486C64.1985 434.536 92.4569 407 126.415 407C134.489 407 142.484 408.59 149.944 411.68C157.404 414.77 164.182 419.299 169.892 425.009C175.601 430.718 180.13 437.497 183.22 444.956C186.31 452.416 187.901 460.412 187.901 468.486V468.486Z" fill="#E5E5E5"/>
<path d="M147.842 557.299H106.851L101.882 537.425H152.81L147.842 557.299Z" fill="#CBCBCB"/>
<path d="M146.444 591.288H108.248V611.192H146.444V591.288Z" fill="white"/>
<path d="M146.755 611.503H107.938V590.977H146.755V611.503ZM108.559 610.882H146.134V591.598H108.559V610.882Z" fill="#CBCBCB"/>
<path d="M135.176 559.643H119.517L117.72 556.819H136.973L135.176 559.643Z" fill="#CBCBCB"/>
<path d="M107.782 557.299H107.161V587.732H107.782V557.299Z" fill="#CBCBCB"/>
<path d="M147.531 557.299H146.91V587.732H147.531V557.299Z" fill="#CBCBCB"/>
<path d="M133.572 537.088L133.192 536.596C151.135 522.76 172.523 499.056 172.523 464.706C172.537 452.676 168.999 440.909 162.352 430.881C155.705 420.853 146.245 413.011 135.159 408.338L135.401 407.766C146.6 412.487 156.155 420.408 162.87 430.538C169.584 440.667 173.158 452.554 173.144 464.706C173.144 499.309 151.624 523.167 133.572 537.088Z" fill="#CBCBCB"/>
<path d="M113.697 537.089L113.318 536.597C131.26 522.76 152.648 499.057 152.648 464.706C152.653 452.757 149.157 441.067 142.593 431.082C136.028 421.097 126.683 413.253 115.71 408.52L115.957 407.95C127.04 412.731 136.481 420.654 143.112 430.741C149.743 440.827 153.274 452.635 153.269 464.706C153.269 499.309 131.75 523.167 113.697 537.089Z" fill="#CBCBCB"/>
<path d="M139.132 537.088C121.079 523.167 99.5598 499.309 99.5598 464.706C99.5549 452.635 103.086 440.827 109.717 430.741C116.348 420.654 125.789 412.731 136.873 407.95L137.119 408.52C126.147 413.253 116.801 421.096 110.236 431.082C103.672 441.067 100.176 452.757 100.181 464.706C100.181 499.056 121.569 522.76 139.511 536.596L139.132 537.088Z" fill="#CBCBCB"/>
<path d="M119.258 537.088C101.205 523.167 79.6856 499.309 79.6856 464.706C79.6654 452.506 83.2646 440.573 90.0278 430.419C96.7911 420.264 106.414 412.344 117.68 407.66L117.92 408.234C106.767 412.87 97.2403 420.711 90.545 430.763C83.8496 440.816 80.2866 452.628 80.3066 464.706C80.3066 499.057 101.695 522.76 119.637 536.596L119.258 537.088Z" fill="#CBCBCB"/>
<path d="M126.725 407H126.104V537.425H126.725V407Z" fill="#CBCBCB"/>
<path d="M119.417 586.775L108.029 598.163L108.468 598.602L119.857 587.214L119.417 586.775Z" fill="#CBCBCB"/>
<path d="M124.954 586.585L108.024 604.39L108.474 604.818L125.404 587.013L124.954 586.585Z" fill="#CBCBCB"/>
<path d="M150.015 586.8H103.435V592.39H150.015V586.8Z" fill="white"/>
<path d="M150.326 592.7H103.125V586.49H150.326V592.7ZM103.746 592.079H149.705V587.111H103.746V592.079Z" fill="#CBCBCB"/>
<path d="M305.091 322.106C305.091 360.229 265.122 378.471 265.122 378.471C265.122 378.471 224.744 360.229 223.924 322.106C223.442 299.697 242.094 281.522 264.507 281.522C275.271 281.522 285.593 285.798 293.204 293.409C300.815 301.02 305.091 311.342 305.091 322.106V322.106Z" fill="#E5E5E5"/>
<path d="M278.65 380.726H251.594L248.315 367.608H281.93L278.65 380.726Z" fill="#CBCBCB"/>
<path d="M277.728 403.16H252.517V416.298H277.728V403.16Z" fill="white"/>
<path d="M277.933 416.503H252.312V402.955H277.933V416.503ZM252.722 416.093H277.523V403.365H252.722V416.093Z" fill="#CBCBCB"/>
<path d="M270.29 382.273H259.954L258.768 380.409H271.476L270.29 382.273Z" fill="#CBCBCB"/>
<path d="M252.209 380.726H251.799V400.813H252.209V380.726Z" fill="#CBCBCB"/>
<path d="M278.445 380.726H278.035V400.813H278.445V380.726Z" fill="#CBCBCB"/>
<path d="M269.231 367.386L268.981 367.061C280.824 357.929 294.941 342.283 294.941 319.611C294.95 311.67 292.615 303.903 288.227 297.284C283.84 290.666 277.596 285.49 270.279 282.405L270.439 282.028C277.83 285.143 284.138 290.372 288.569 297.058C293.001 303.744 295.36 311.59 295.35 319.611C295.35 342.45 281.147 358.197 269.231 367.386Z" fill="#CBCBCB"/>
<path d="M256.113 367.386L255.863 367.062C267.706 357.929 281.823 342.283 281.823 319.611C281.826 311.723 279.519 304.008 275.186 297.417C270.853 290.827 264.684 285.649 257.442 282.525L257.605 282.149C264.92 285.305 271.152 290.534 275.528 297.192C279.905 303.85 282.236 311.643 282.233 319.611C282.233 342.45 268.029 358.197 256.113 367.386Z" fill="#CBCBCB"/>
<path d="M272.901 367.386C260.986 358.197 246.782 342.45 246.782 319.611C246.779 311.643 249.109 303.849 253.486 297.192C257.863 290.534 264.094 285.305 271.41 282.149L271.573 282.525C264.33 285.649 258.162 290.826 253.829 297.417C249.496 304.008 247.189 311.723 247.192 319.611C247.192 342.283 261.309 357.929 273.151 367.061L272.901 367.386Z" fill="#CBCBCB"/>
<path d="M259.783 367.386C247.868 358.197 233.664 342.45 233.664 319.611C233.651 311.558 236.026 303.682 240.49 296.979C244.954 290.277 251.306 285.049 258.742 281.958L258.9 282.336C251.539 285.397 245.251 290.572 240.832 297.207C236.413 303.842 234.061 311.639 234.074 319.611C234.074 342.284 248.191 357.929 260.034 367.061L259.783 367.386Z" fill="#CBCBCB"/>
<path d="M264.712 281.522H264.302V367.608H264.712V281.522Z" fill="#CBCBCB"/>
<path d="M259.889 400.181L252.372 407.698L252.662 407.988L260.179 400.471L259.889 400.181Z" fill="#CBCBCB"/>
<path d="M263.543 400.056L252.369 411.808L252.666 412.091L263.84 400.339L263.543 400.056Z" fill="#CBCBCB"/>
<path d="M280.085 400.198H249.34V403.887H280.085V400.198Z" fill="white"/>
<path d="M280.29 404.092H249.135V399.993H280.29V404.092ZM249.545 403.682H279.88V400.403H249.545V403.682Z" fill="#CBCBCB"/>
<path d="M673.02 388.228C673.277 388.228 673.525 388.13 673.713 387.954C673.901 387.778 674.016 387.538 674.034 387.281C674.7 378.234 678.757 369.772 685.395 363.588C692.032 357.405 700.76 353.956 709.831 353.931C710.917 353.931 712.057 353.987 713.221 354.096C713.416 354.114 713.611 354.076 713.785 353.986C713.959 353.896 714.102 353.757 714.2 353.588C718.367 346.294 724.589 340.389 732.091 336.61C739.593 332.83 748.041 331.344 756.383 332.336C764.724 333.328 772.588 336.755 778.994 342.188C785.4 347.622 790.065 354.821 792.404 362.889C792.466 363.105 792.598 363.295 792.779 363.428C792.961 363.561 793.181 363.63 793.406 363.624L793.677 363.616C793.818 363.611 793.958 363.606 794.1 363.606C800.981 363.627 807.647 366.001 812.993 370.332C818.339 374.664 822.044 380.693 823.492 387.42C823.54 387.648 823.665 387.853 823.847 388C824.028 388.148 824.255 388.228 824.488 388.228H892.712C892.846 388.228 892.979 388.202 893.103 388.151C893.227 388.1 893.34 388.025 893.435 387.931C893.529 387.836 893.605 387.724 893.656 387.6C893.708 387.476 893.734 387.344 893.734 387.21C893.734 387.076 893.708 386.943 893.656 386.819C893.605 386.695 893.529 386.583 893.435 386.488C893.34 386.394 893.227 386.319 893.103 386.268C892.979 386.217 892.846 386.191 892.712 386.191H825.303C823.606 379.195 819.614 372.968 813.965 368.505C808.316 364.043 801.335 361.601 794.135 361.569C791.572 353.279 786.657 345.911 779.986 340.361C773.316 334.811 765.177 331.318 756.558 330.306C747.94 329.294 739.213 330.806 731.438 334.659C723.663 338.513 717.174 344.541 712.76 352.012C711.759 351.934 710.776 351.895 709.831 351.895C700.245 351.921 691.022 355.566 684.008 362.1C676.994 368.635 672.706 377.578 672.003 387.138C671.993 387.272 672.01 387.406 672.052 387.532C672.095 387.659 672.162 387.777 672.25 387.878C672.337 387.978 672.444 388.061 672.564 388.121C672.683 388.181 672.814 388.216 672.947 388.225C672.971 388.227 672.996 388.228 673.02 388.228Z" fill="#CBCBCB"/>
<path d="M685.136 401.285H852.147C852.417 401.285 852.676 401.178 852.867 400.987C853.058 400.796 853.165 400.537 853.165 400.267C853.165 399.997 853.058 399.738 852.867 399.547C852.676 399.356 852.417 399.248 852.147 399.248H685.136C684.866 399.248 684.607 399.356 684.416 399.547C684.225 399.738 684.118 399.997 684.118 400.267C684.118 400.537 684.225 400.796 684.416 400.987C684.607 401.178 684.866 401.285 685.136 401.285V401.285Z" fill="#CBCBCB"/>
<path d="M811.412 416.051H867.422C867.692 416.05 867.95 415.943 868.14 415.752C868.33 415.561 868.437 415.302 868.437 415.033C868.437 414.763 868.33 414.505 868.14 414.314C867.95 414.123 867.692 414.015 867.422 414.014H811.412C811.279 414.014 811.146 414.041 811.023 414.092C810.899 414.143 810.787 414.218 810.692 414.313C810.598 414.407 810.523 414.52 810.472 414.643C810.42 414.767 810.394 414.899 810.394 415.033C810.394 415.167 810.42 415.299 810.472 415.422C810.523 415.546 810.598 415.658 810.692 415.753C810.787 415.847 810.899 415.922 811.023 415.974C811.146 416.025 811.279 416.051 811.412 416.051V416.051Z" fill="#CBCBCB"/>
<path d="M439.32 488.228C439.063 488.228 438.815 488.13 438.626 487.954C438.438 487.778 438.323 487.538 438.305 487.281C437.64 478.234 433.582 469.772 426.945 463.588C420.308 457.405 411.58 453.956 402.509 453.931C401.423 453.931 400.283 453.987 399.119 454.096C398.924 454.114 398.728 454.076 398.555 453.986C398.381 453.896 398.237 453.757 398.14 453.588C393.973 446.294 387.751 440.389 380.249 436.61C372.747 432.83 364.298 431.344 355.957 432.336C347.616 433.328 339.751 436.755 333.345 442.188C326.939 447.622 322.275 454.822 319.935 462.889C319.873 463.105 319.741 463.295 319.56 463.428C319.379 463.561 319.159 463.63 318.934 463.624L318.663 463.616C318.522 463.611 318.381 463.606 318.239 463.606C311.359 463.627 304.693 466.001 299.346 470.332C294 474.664 290.296 480.693 288.848 487.42C288.8 487.648 288.675 487.853 288.493 488C288.312 488.148 288.085 488.228 287.852 488.228H219.627C219.493 488.228 219.36 488.202 219.237 488.151C219.113 488.1 219 488.025 218.905 487.931C218.81 487.836 218.735 487.724 218.684 487.6C218.632 487.476 218.606 487.344 218.606 487.21C218.606 487.076 218.632 486.943 218.684 486.819C218.735 486.695 218.81 486.583 218.905 486.488C219 486.394 219.113 486.319 219.237 486.268C219.36 486.217 219.493 486.191 219.627 486.191H287.037C288.734 479.195 292.725 472.968 298.374 468.505C304.024 464.043 311.005 461.601 318.204 461.569C320.767 453.279 325.683 445.911 332.353 440.361C339.024 434.811 347.163 431.318 355.781 430.306C364.4 429.294 373.126 430.806 380.901 434.659C388.677 438.513 395.165 444.541 399.579 452.012C400.581 451.934 401.564 451.895 402.509 451.895C412.095 451.921 421.318 455.566 428.332 462.101C435.346 468.635 439.634 477.578 440.337 487.138C440.347 487.272 440.33 487.406 440.287 487.532C440.245 487.659 440.178 487.777 440.09 487.878C440.002 487.979 439.896 488.061 439.776 488.121C439.656 488.181 439.526 488.216 439.393 488.225C439.368 488.227 439.344 488.228 439.32 488.228Z" fill="#CBCBCB"/>
<path d="M427.204 501.285H260.193C260.059 501.285 259.926 501.259 259.802 501.208C259.679 501.157 259.566 501.082 259.471 500.988C259.376 500.893 259.301 500.781 259.249 500.657C259.198 500.533 259.172 500.401 259.172 500.267C259.172 500.133 259.198 500 259.249 499.876C259.301 499.752 259.376 499.64 259.471 499.545C259.566 499.451 259.679 499.376 259.802 499.325C259.926 499.274 260.059 499.248 260.193 499.248H427.204C427.474 499.248 427.733 499.356 427.924 499.547C428.115 499.738 428.222 499.997 428.222 500.267C428.222 500.537 428.115 500.796 427.924 500.987C427.733 501.178 427.474 501.285 427.204 501.285Z" fill="#CBCBCB"/>
<path d="M300.927 516.051H244.918C244.784 516.052 244.651 516.025 244.527 515.974C244.403 515.924 244.291 515.849 244.196 515.754C244.101 515.659 244.025 515.547 243.974 515.423C243.923 515.299 243.896 515.167 243.896 515.033C243.896 514.899 243.923 514.766 243.974 514.642C244.025 514.519 244.101 514.406 244.196 514.312C244.291 514.217 244.403 514.142 244.527 514.091C244.651 514.04 244.784 514.014 244.918 514.014H300.927C301.061 514.014 301.194 514.04 301.318 514.091C301.442 514.142 301.555 514.217 301.65 514.312C301.744 514.406 301.82 514.519 301.871 514.642C301.923 514.766 301.949 514.899 301.949 515.033C301.949 515.167 301.923 515.299 301.871 515.423C301.82 515.547 301.744 515.659 301.65 515.754C301.555 515.849 301.442 515.924 301.318 515.974C301.194 516.025 301.061 516.052 300.927 516.051V516.051Z" fill="#CBCBCB"/>
</g>
<defs>
<clipPath id="clip0_83_191">
<rect width="865.573" height="658.549" fill="white"/>
</clipPath>
</defs>
</svg>
