<svg width="397" height="659" viewBox="0 0 397 659" fill="none" xmlns="http://www.w3.org/2000/svg">
<path d="M180.992 647.768H177.639L176.044 634.839H180.992V647.768Z" fill="#9F616A"/>
<path d="M181.847 651.018H171.038V650.881C171.039 649.766 171.483 648.696 172.272 647.907C173.06 647.119 174.13 646.675 175.245 646.674H181.847V651.018Z" fill="#2F2E41"/>
<path d="M224.219 641.416L221.345 643.143L213.319 632.881L217.56 630.333L224.219 641.416Z" fill="#9F616A"/>
<path d="M217.36 649.328L217.29 649.211C216.716 648.254 216.546 647.109 216.816 646.027C217.086 644.944 217.774 644.013 218.729 643.438L224.388 640.038L226.625 643.761L217.36 649.328Z" fill="#2F2E41"/>
<path d="M181.863 645.1L181.806 645.1C180.175 645.095 178.546 645.001 176.925 644.819C176.307 644.758 175.637 644.692 174.83 644.625L174.802 644.62C174.252 644.456 174.236 639.291 174.47 621.609C174.589 612.553 174.725 602.289 174.564 595.752L174.562 595.687L174.611 595.645C177.526 593.089 181.005 591.259 184.763 590.305C188.521 589.351 192.452 589.3 196.234 590.155L196.293 590.168L196.324 590.22C199.618 595.794 204.592 603.823 209.403 611.589C220.446 629.414 223.604 634.657 223.258 635.052L223.216 635.084C222.462 635.461 221.896 635.752 221.415 635.998C219.509 636.985 217.552 637.868 215.551 638.643L215.463 638.679L215.398 638.609C204.193 626.331 194.869 612.616 189.102 599.937C188.428 604.265 187.61 609.917 186.745 615.889C184.26 633.062 182.58 644.37 181.904 645.059L181.863 645.1Z" fill="#2F2E41"/>
<path d="M205.274 646.307H201.163L199.208 630.453H205.274V646.307Z" fill="#FFB7B7"/>
<path d="M198.227 645.132H206.154V650.123H193.236C193.236 649.468 193.365 648.819 193.616 648.213C193.867 647.608 194.235 647.058 194.698 646.594C195.162 646.131 195.712 645.763 196.317 645.512C196.923 645.261 197.572 645.132 198.227 645.132Z" fill="#2F2E41"/>
<path d="M220.696 646.307H216.586L214.63 630.453H220.697L220.696 646.307Z" fill="#FFB7B7"/>
<path d="M213.65 645.132H221.577V650.123H208.659C208.659 648.8 209.185 647.53 210.121 646.594C211.057 645.658 212.326 645.132 213.65 645.132Z" fill="#2F2E41"/>
<path d="M205.079 638.32L200.555 638.104C200.169 638.086 199.805 637.921 199.538 637.642C199.271 637.364 199.12 636.994 199.118 636.608L198.802 590.825C198.8 590.608 198.846 590.393 198.935 590.195C199.024 589.997 199.156 589.82 199.319 589.677C199.483 589.535 199.676 589.429 199.884 589.367C200.093 589.306 200.312 589.29 200.527 589.322L218.629 591.949C218.987 591.999 219.315 592.177 219.552 592.449C219.789 592.721 219.921 593.07 219.921 593.431L222.25 635.854C222.251 636.053 222.213 636.25 222.138 636.434C222.063 636.619 221.952 636.786 221.812 636.928C221.672 637.069 221.505 637.181 221.321 637.258C221.137 637.334 220.94 637.374 220.741 637.374H215.863C215.503 637.375 215.154 637.247 214.881 637.013C214.607 636.78 214.427 636.455 214.372 636.099C214.372 636.099 210.688 604.279 210.182 604.297C209.673 604.307 206.649 636.992 206.649 636.992C206.604 637.358 206.427 637.695 206.151 637.94C205.875 638.185 205.52 638.321 205.151 638.322C205.127 638.322 205.103 638.321 205.079 638.32Z" fill="#2F2E41"/>
<path d="M262.591 593.451H139.591V657.549H262.591V593.451Z" fill="white"/>
<path d="M274.091 579H124.091V597H274.091V579Z" fill="white"/>
<path d="M184.882 597.073C191.563 597.043 198.201 598.154 204.508 600.358C204.728 589.77 201.178 579.447 194.493 571.233L194.444 571.174L194.469 571.101C196.229 566.015 198.048 560.758 199.674 555.528L199.65 555.44C198.509 551.387 196.062 547.291 192.168 542.918C191.746 542.481 191.173 542.22 190.566 542.189C189.958 542.159 189.362 542.36 188.897 542.753C185.486 545.872 182.829 549.727 181.127 554.026C179.425 558.324 178.724 562.953 179.076 567.563L179.078 567.589L179.071 567.614C176.022 577.944 174.915 583.25 173.939 587.931C173.226 591.346 172.609 594.302 171.371 598.527C175.81 597.561 180.339 597.074 184.882 597.073V597.073Z" fill="#CBCBCB"/>
<path opacity="0.1" d="M194.719 564.419L184.8 586.013L179.133 580.277L194.719 564.419Z" fill="black"/>
<path d="M190.478 540.816C194.375 540.816 197.535 537.657 197.535 533.759C197.535 529.862 194.375 526.703 190.478 526.703C186.581 526.703 183.421 529.862 183.421 533.759C183.421 537.657 186.581 540.816 190.478 540.816Z" fill="#9F616A"/>
<path d="M181.922 529.773H193.127V524.889C190.668 523.912 188.261 523.081 186.806 524.889C185.511 524.889 184.268 525.403 183.352 526.319C182.436 527.235 181.922 528.478 181.922 529.773V529.773Z" fill="#2F2E41"/>
<path d="M193.748 524.027C200.446 524.027 202.321 532.423 202.321 537.161C202.321 539.802 201.127 540.747 199.249 541.067L198.586 537.531L197.033 541.219C196.506 541.222 195.952 541.212 195.378 541.201L194.851 540.117L193.677 541.181C188.975 541.188 185.174 541.874 185.174 537.161C185.174 532.423 186.818 524.027 193.748 524.027Z" fill="#2F2E41"/>
<path d="M396.091 198C396.091 384 201.091 473 201.091 473C201.091 473 4.09095 384 0.0909493 198C-2.26017 88.6729 88.7386 0 198.091 0C307.443 0 396.091 88.6477 396.091 198Z" fill="#FF9A9D"/>
<path d="M220.194 599.089C219.751 598.804 219.376 598.425 219.095 597.98C218.814 597.534 218.635 597.033 218.569 596.51C218.503 595.988 218.552 595.458 218.714 594.956C218.875 594.455 219.144 593.995 219.502 593.609L216.796 555.202L224.592 555.958L224.806 593.57C225.414 594.215 225.765 595.061 225.792 595.947C225.819 596.833 225.519 597.698 224.951 598.378C224.382 599.058 223.584 599.506 222.707 599.637C221.831 599.768 220.936 599.573 220.194 599.089Z" fill="#FFB7B7"/>
<path d="M218.561 568.108C218.378 567.976 218.228 567.806 218.12 567.608C218.012 567.411 217.95 567.192 217.938 566.968L217.366 556.616C217.31 555.59 217.635 554.58 218.279 553.78C218.923 552.98 219.841 552.447 220.855 552.283C221.869 552.12 222.908 552.337 223.771 552.894C224.634 553.451 225.26 554.308 225.529 555.299L228.038 564.554C228.142 564.941 228.089 565.352 227.89 565.699C227.691 566.046 227.363 566.3 226.977 566.405L219.839 568.341C219.622 568.4 219.395 568.41 219.173 568.369C218.952 568.329 218.743 568.24 218.561 568.108V568.108Z" fill="#3F3D56"/>
<path d="M211.893 543.506C216.441 543.506 220.127 539.819 220.127 535.271C220.127 530.723 216.441 527.037 211.893 527.037C207.345 527.037 203.658 530.723 203.658 535.271C203.658 539.819 207.345 543.506 211.893 543.506Z" fill="#FFB7B7"/>
<path d="M217.72 541.786C217.376 542.157 216.933 542.422 216.443 542.55C215.953 542.679 215.437 542.664 214.955 542.509C214.473 542.354 214.045 542.064 213.722 541.674C213.399 541.285 213.194 540.811 213.131 540.308C213.115 540.135 213.116 539.96 213.134 539.787C213.238 538.796 213.81 537.897 213.673 536.852C213.642 536.592 213.545 536.344 213.391 536.131C212.167 534.492 209.293 536.865 208.138 535.381C207.43 534.471 208.262 533.038 207.719 532.021C207.001 530.679 204.876 531.341 203.543 530.606C202.061 529.788 202.149 527.513 203.125 526.129C203.761 525.312 204.569 524.644 205.491 524.174C206.414 523.705 207.429 523.444 208.464 523.411C210.536 523.363 212.594 523.764 214.496 524.589C216.742 525.319 218.724 526.693 220.196 528.541C220.957 529.752 221.44 531.117 221.609 532.538C221.777 533.959 221.628 535.399 221.171 536.755C220.673 538.418 218.975 540.45 217.72 541.786Z" fill="#2F2E41"/>
<path d="M220.112 549.006C219.969 548.903 219.823 548.802 219.674 548.703C218.884 548.177 218.028 547.757 217.128 547.454V545.291H210.758V547.298C208.646 547.881 206.752 549.071 205.312 550.722C203.872 552.372 202.948 554.409 202.657 556.58L198.319 588.783C198.291 588.984 198.305 589.189 198.358 589.385C198.412 589.581 198.505 589.764 198.631 589.923C198.755 590.081 198.91 590.212 199.086 590.309C199.262 590.405 199.455 590.465 199.655 590.484C202.694 590.878 205.622 591.881 208.265 593.433C210.183 594.496 212.343 595.047 214.536 595.034C216.277 595.027 218.004 594.72 219.641 594.125C219.918 594.023 220.159 593.841 220.333 593.602C220.507 593.363 220.607 593.077 220.619 592.782C220.775 589.317 221.689 571.478 224.348 560.597C224.866 558.463 224.739 556.223 223.985 554.16C223.231 552.097 221.884 550.304 220.112 549.006Z" fill="#3F3D56"/>
<path d="M267.091 484H135.091L119.091 420H283.091L267.091 484Z" fill="#545267"/>
<path d="M263.591 658.549H138.591V592.451H263.591V658.549ZM140.591 656.549H261.591V594.451H140.591V656.549Z" fill="#3F3D56"/>
<path d="M226.304 491.547H175.878L170.091 482.453H232.091L226.304 491.547Z" fill="#545267"/>
<path d="M138.091 484H136.091V582H138.091V484Z" fill="#3F3D56"/>
<path d="M266.091 484H264.091V582H266.091V484Z" fill="#3F3D56"/>
<path d="M221.138 418.916L219.917 417.332C277.695 372.776 346.57 296.444 346.57 185.829C346.616 147.087 335.222 109.194 313.818 76.9022C292.413 44.6103 261.951 19.3571 226.25 4.30956L227.03 2.46777C263.092 17.668 293.864 43.1774 315.485 75.797C337.107 108.416 348.616 146.694 348.57 185.829C348.57 297.256 279.272 374.085 221.138 418.916Z" fill="#3F3D56"/>
<path d="M157.137 418.917L155.916 417.333C213.695 372.776 282.57 296.444 282.57 185.829C282.585 147.348 271.328 109.705 250.189 77.5498C229.05 45.395 198.955 20.1367 163.621 4.89508L164.414 3.05914C200.106 18.4555 230.507 43.97 251.86 76.4511C273.214 108.932 284.585 146.957 284.57 185.829C284.57 297.257 215.271 374.086 157.137 418.917Z" fill="#3F3D56"/>
<path d="M239.043 418.916C180.91 374.086 111.612 297.257 111.612 185.829C111.596 146.957 122.968 108.932 144.322 76.4504C165.676 43.9691 196.077 18.4547 231.77 3.05865L232.563 4.89458C197.228 20.136 167.133 45.3942 145.993 77.5491C124.854 109.704 113.596 147.347 113.612 185.829C113.612 296.444 182.486 372.776 240.265 417.332L239.043 418.916Z" fill="#3F3D56"/>
<path d="M175.044 418.916C116.91 374.086 47.6121 297.257 47.6121 185.829C47.5468 146.54 59.137 108.114 80.9164 75.4142C102.696 42.7142 133.685 17.2092 169.964 2.12653L170.735 3.97222C134.821 18.9033 104.142 44.152 82.5818 76.5234C61.0213 108.895 49.5474 146.934 49.6121 185.829C49.6121 296.445 118.487 372.776 176.265 417.332L175.044 418.916Z" fill="#3F3D56"/>
<path d="M199.091 0H197.091V420H199.091V0Z" fill="#3F3D56"/>
<path d="M175.558 578.918L138.884 615.592L140.298 617.006L176.972 580.332L175.558 578.918Z" fill="#3F3D56"/>
<path d="M193.386 578.308L138.87 635.645L140.319 637.023L194.836 579.686L193.386 578.308Z" fill="#3F3D56"/>
<path d="M275.091 598H123.091V578H275.091V598ZM125.091 596H273.091V580H125.091V596Z" fill="#3F3D56"/>
<path d="M172.605 587.372C173.006 587.344 173.396 587.229 173.748 587.034C174.099 586.839 174.404 586.569 174.64 586.244C174.876 585.918 175.038 585.545 175.114 585.151C175.19 584.756 175.179 584.349 175.081 583.959L183.254 578.605L178.593 576.591L171.546 581.985C170.902 582.193 170.357 582.629 170.014 583.213C169.67 583.796 169.552 584.485 169.683 585.149C169.814 585.813 170.183 586.406 170.722 586.816C171.26 587.225 171.93 587.423 172.605 587.372H172.605Z" fill="#9F616A"/>
<path d="M180.469 583.514L180.366 583.441C178.421 582.01 176.262 580.529 174.174 579.098L174.048 579.012L174.147 578.896C178.604 573.681 183.066 568.234 187.382 562.965L187.374 562.946L187.414 562.925L187.431 562.904L187.441 562.912L187.467 562.899L187.349 562.908L186.019 552.476C185.36 551.391 185.024 550.141 185.049 548.873C185.075 547.604 185.461 546.368 186.162 545.311C186.969 544.17 188.169 543.367 189.532 543.055C190.894 542.744 192.324 542.947 193.546 543.625C194.149 544.03 194.654 544.565 195.022 545.192C195.391 545.818 195.613 546.519 195.674 547.243C195.759 547.888 195.7 548.544 195.499 549.163C195.299 549.783 194.963 550.349 194.516 550.822C194.975 555.884 195.178 560.967 195.124 566.05L195.124 566.098L195.094 566.137C190.493 571.982 185.439 577.796 180.552 583.419L180.469 583.514Z" fill="#CBCBCB"/>
<path d="M182.053 551.449C182.094 551.63 182.121 551.814 182.133 551.999L196.535 560.307L200.036 558.292L203.768 563.178L196.279 568.515L179.848 555.553C179.178 555.801 178.449 555.839 177.756 555.662C177.064 555.486 176.442 555.102 175.973 554.563C175.504 554.024 175.21 553.355 175.13 552.645C175.051 551.935 175.189 551.217 175.527 550.588C175.865 549.958 176.387 549.447 177.023 549.121C177.659 548.795 178.379 548.671 179.088 548.764C179.796 548.858 180.459 549.165 180.989 549.644C181.519 550.124 181.89 550.753 182.053 551.449H182.053Z" fill="#FFB7B7"/>
<path d="M197.05 559.601C197.026 559.378 197.052 559.151 197.127 558.939C197.202 558.727 197.324 558.535 197.483 558.376L204.813 551.045C205.54 550.318 206.509 549.887 207.535 549.833C208.56 549.779 209.57 550.107 210.368 550.753C211.167 551.399 211.697 552.318 211.858 553.332C212.019 554.347 211.799 555.385 211.24 556.247L206.02 564.29C205.802 564.626 205.459 564.861 205.068 564.944C204.677 565.027 204.269 564.952 203.933 564.735L197.729 560.709C197.54 560.587 197.381 560.424 197.264 560.232C197.146 560.04 197.073 559.825 197.05 559.601V559.601Z" fill="#3F3D56"/>
</svg>
